{"title":"Avatar.Extended.Collectors.Edition (60FPS) [1080p.DTS-HD MA.5.1.","uid":9233982,"size":15561177848,"categoryP":"video","categoryS":"hd___movies","magnet":"?xt=urn:btih:5a6473e5935828d8c1af039a3ae3d16504aa5f12&amp;dn=Avatar.Extended.Collectors.Edition+%2860FPS%29+%5B1080p.DTS-HD+MA.5.1.&amp;tr=udp%3A%2F%2Ftracker.openbittorrent.com%3A80&amp;tr=udp%3A%2F%2Fopen.demonii.com%3A1337&amp;tr=udp%3A%2F%2Ftracker.coppersurfer.tk%3A6969&amp;tr=udp%3A%2F%2Fexodus.desync.com%3A6969","seeders":3,"leechers":2,"uploader":"gixer1000k9","files":-1,"time":1385134829,"description":"Director..........:  James Cameron\nWriter............:  James Cameron\nStarring..........:  Sam Worthington, Zoe Saldana, Sigourney Weaver\n\nWhen his brother is killed in a robbery, paraplegic Marine Jake Sully decides to take his place in a mission on the distant world of Pandora. There he learns of greedy corporate figurehead Parker Selfridge's intentions of driving off the native humanoid &quot;Na'vi&quot; in order to mine for the precious material scattered throughout their rich woodland. In exchange for the spinal surgery that will fix his legs, Jake gathers intel for the cooperating military unit spearheaded by gung-ho Colonel Quaritch, while simultaneously attempting to infiltrate the Na'vi people with the use of an &quot;avatar&quot; identity. While Jake begins to bond with the native tribe and quickly falls in love with the beautiful alien Neytiri, the restless Colonel moves forward with his ruthless extermination tactics, forcing the soldier to take a stand - and fight back in an epic battle for the fate of Pandora.\n\nScreens:\n &lt;a href=&quot;\nhttp://i.imgur.com/JjkSHNz.png&quot; rel=&quot;nofollow&quot; target=&quot;_NEW&quot;&gt;\nhttp://i.imgur.com/JjkSHNz.png&lt;/a&gt; &lt;a href=&quot;\nhttp://i.imgur.com/5si5Nlh.png&quot; rel=&quot;nofollow&quot; target=&quot;_NEW&quot;&gt;\nhttp://i.imgur.com/5si5Nlh.png&lt;/a&gt; &lt;a href=&quot;\nhttp://i.imgur.com/KoJNP3W.png&quot; rel=&quot;nofollow&quot; target=&quot;_NEW&quot;&gt;\nhttp://i.imgur.com/KoJNP3W.png&lt;/a&gt; &lt;a href=&quot;\nhttp://i.imgur.com/RXCAMDl.png&quot; rel=&quot;nofollow&quot; target=&quot;_NEW&quot;&gt;\nhttp://i.imgur.com/RXCAMDl.png&lt;/a&gt; &lt;a href=&quot;\nhttp://i.imgur.com/M2VJX9S.png&quot; rel=&quot;nofollow&quot; target=&quot;_NEW&quot;&gt;\nhttp://i.imgur.com/M2VJX9S.png&lt;/a&gt; &lt;a href=&quot;\nhttp://i.imgur.com/30loggU.png&quot; rel=&quot;nofollow&quot; target=&quot;_NEW&quot;&gt;\nhttp://i.imgur.com/30loggU.png&lt;/a&gt;\n\nTechnical Data:\n\nGeneral\n\nFormat: Matroska\nFormat version: Version 4 / Version 2\nFile size: 14.5 GiB\nDuration: 2h 58mn\nOverall bit rate mode: Variable\nOverall bit rate: 11.6 Mbps\nEncoded date: UTC 2013-11-22 11:24:05\nWriting application: mkvmerge v6.5.0 ('Isn't she lovely') built on Oct 20 2013 12:50:05\nWriting library: libebml v1.3.0 + libmatroska v1.4.1\n\nVideo\nID: 1\nFormat: AVC\nFormat/Info: Advanced Video Codec\nFormat profile: &lt;a class=&quot;__cf_email__&quot; href=&quot;/cdn-cgi/l/email-protection&quot; data-cfemail=&quot;b1f9d8d6d9f1fd859f83&quot;&gt;[email&amp;#160;protected]&lt;/a&gt;&lt;script cf-hash='f9e31' type=&quot;text/javascript&quot;&gt;\n/* &lt;![CDATA[ */!function(){try{var t=&quot;currentScript&quot;in document?document.currentScript:function(){for(var t=document.getElementsByTagName(&quot;script&quot;),e=t.length;e--;)if(t[e].getAttribute(&quot;cf-hash&quot;))return t[e]}();if(t&amp;&amp;t.previousSibling){var e,r,n,i,c=t.previousSibling,a=c.getAttribute(&quot;data-cfemail&quot;);if(a){for(e=&quot;&quot;,r=parseInt(a.substr(0,2),16),n=2;a.length-n;n+=2)i=parseInt(a.substr(n,2),16)^r,e+=String.fromCharCode(i);e=document.createTextNode(e),c.parentNode.replaceChild(e,c)}}}catch(u){}}();/* ]]&gt; */&lt;/script&gt;\nFormat settings, CABAC: Yes\nFormat settings, ReFrames: 4 frames\nCodec ID: V_MPEG4/ISO/AVC\nDuration: 2h 58mn\nWidth: 1 920 pixels\nHeight: 1 080 pixels\nDisplay aspect ratio: 16:9\nFrame rate mode: Constant\nFrame rate: 59.880 fps\nOriginal frame rate: 59.940 fps\nColor space: YUV\nChroma subsampling: 4:2:0\nBit depth: 8 bits\nScan type: Progressive\nWriting library: x264 core 133 r2334 a3ac64b\nLanguage: English\nDefault: Yes\nForced: No\n\nAudio #1\nID: 2\nFormat: AC-3\nFormat/Info: Audio Coding 3\nMode extension: CM (complete main)\nFormat settings, Endianness: Big\nCodec ID: A_AC3\nDuration: 2h 58mn\nBit rate mode: Constant\nBit rate: 448 Kbps\nChannel count: 6 channels\nChannel positions: Front: L C R, Side: L R, LFE\nSampling rate: 48.0 KHz\nBit depth: 16 bits\nCompression mode: Lossy\nStream size: 571 MiB (4%)\nTitle: AC3 5.1 Lektor PL\nLanguage: Polish\nDefault: Yes\nForced: Yes\n\nAudio #2\nID: 3\nFormat: AC-3\nFormat/Info: Audio Coding 3\nMode extension: CM (complete main)\nFormat settings, Endianness: Big\nCodec ID: A_AC3\nDuration: 2h 58mn\nBit rate mode: Constant\nBit rate: 640 Kbps\nChannel count: 6 channels\nChannel positions: Front: L C R, Side: L R, LFE\nSampling rate: 48.0 KHz\nBit depth: 16 bits\nCompression mode: Lossy\nStream size: 816 MiB (5%)\nTitle: AC3 5.1 English\nLanguage: English\nDefault: No\nForced: No\n\nAudio #3\nID: 4\nFormat: DTS\nFormat/Info: Digital Theater Systems\nFormat profile: MA / Core\nMode: 16\nFormat settings, Endianness: Big\nCodec ID: A_DTS\nDuration: 2h 58mn\nBit rate mode: Variable\nBit rate: Unknown / 1 509 Kbps\nChannel count: 6 channels\nChannel positions: Front: L C R, Side: L R, LFE\nSampling rate: 48.0 KHz\nBit depth: 24 bits\nCompression mode: Lossless / Lossy\nDelay relative to video: 2ms\nTitle: DTS-HD MA 5.1 Orginal\nLanguage: English\nDefault: No\nForced: No\n\nText #1\nID: 5\nFormat: PGS\nMuxing mode: zlib\nCodec ID: S_HDMV/PGS\nCodec ID/Info: The same subtitle format used on BDs/HD-DVDs\nLanguage: Polish\nDefault: No\nForced: No\n\nText #2\nID: 6\nFormat: PGS\nMuxing mode: zlib\nCodec ID: S_HDMV/PGS\nCodec ID/Info: The same subtitle format used on BDs/HD-DVDs\nLanguage: English\nDefault: No\nForced: No\n\nText #3\nID: 7\nFormat: UTF-8\nCodec ID: S_TEXT/UTF8\nCodec ID/Info: UTF-8 Plain Text\nDefault: Yes\nForced: No","torrent":{"xt":"urn:btih:5a6473e5935828d8c1af039a3ae3d16504aa5f12","amp;dn":"Avatar.Extended.Collectors.Edition+%2860FPS%29+%5B1080p.DTS-HD+MA.5.1.","amp;tr":["udp%3A%2F%2Ftracker.openbittorrent.com%3A80","udp%3A%2F%2Fopen.demonii.com%3A1337","udp%3A%2F%2Ftracker.coppersurfer.tk%3A6969","udp%3A%2F%2Fexodus.desync.com%3A6969"],"infoHash":"5a6473e5935828d8c1af039a3ae3d16504aa5f12","infoHashBuffer":{"type":"Buffer","data":[90,100,115,229,147,88,40,216,193,175,3,154,58,227,209,101,4,170,95,18]},"announce":[],"urlList":[]}}